<svg xmlns="http://www.w3.org/2000/svg" width="22" height="18" viewBox="0 0 22 18" fill="none">
  <g clip-path="url(#clip0_8054_4736)">
    <path d="M20.78 7.60001C21.19 7.60001 21.53 7.27001 21.54 6.86001V5.86001C21.58 1.45001 20.24 0.100006 15.84 0.0700058L5.83001 5.75825e-06C1.42001 -0.0299942 0.0700058 1.30001 0.0400058 5.71001V6.21001C0.0400058 6.62001 0.370006 6.96001 0.780006 6.97001C1.74001 6.97001 2.52001 7.77001 2.52001 8.73001C2.52001 9.69001 1.72001 10.48 0.760006 10.47C0.350006 10.47 0.0100058 10.8 5.75825e-06 11.21V11.71C-0.0299942 16.12 1.30001 17.47 5.71001 17.5L15.71 17.57C20.12 17.6 21.47 16.27 21.5 11.86C21.5 11.45 21.17 11.11 20.76 11.1C19.8 11.1 19.02 10.3 19.02 9.34001C19.02 8.38001 19.82 7.60001 20.78 7.60001ZM19.99 12.51C19.88 15.51 19.07 16.09 15.72 16.07L5.72001 16C2.20001 15.98 1.50001 15.32 1.50001 11.88C2.93001 11.55 4.01001 10.27 4.02001 8.73001C4.03001 7.19001 2.97001 5.90001 1.54001 5.55001C1.58001 2.12001 2.30001 1.47001 5.82001 1.49001L15.82 1.56001C19.4 1.58001 20.07 2.26001 20.04 5.84001V6.18001C18.6 6.51001 17.53 7.79001 17.52 9.33001C17.51 10.87 18.56 12.16 19.99 12.51Z" fill="#9B9B9B"/>
    <path d="M10.8 4.02979C9.73004 4.02979 8.67004 4.38979 7.83004 5.04979C6.69004 5.93979 6.03004 7.28978 6.02004 8.74978C6.00004 11.3698 8.12004 13.5198 10.74 13.5298C11.89 13.5298 13 13.1198 13.88 12.3698C14.91 11.4698 15.51 10.1798 15.52 8.81978C15.54 6.19978 13.42 4.05978 10.8 4.03978V4.02979ZM12.9 11.2398C12.29 11.7598 11.53 12.0498 10.75 12.0398C8.96004 12.0298 7.51004 10.5598 7.52004 8.76979C7.52004 7.76979 7.98004 6.84978 8.75004 6.23978C9.34004 5.77978 10.05 5.52978 10.79 5.53978C12.58 5.54978 14.03 7.01979 14.02 8.80979C14.02 9.73979 13.6 10.6298 12.9 11.2398Z" fill="#9B9B9B"/>
    <path d="M11.03 6.79004C10.62 6.79004 10.28 7.12004 10.27 7.53004V8.61004L9.37 9.14004C9.01 9.35004 8.9 9.81004 9.11 10.17C9.25 10.41 9.5 10.54 9.75 10.54C9.88 10.54 10.01 10.51 10.14 10.44L11.4 9.70004C11.63 9.57004 11.77 9.32004 11.77 9.06004V7.56004C11.78 7.15004 11.45 6.81004 11.04 6.80004L11.03 6.79004Z" fill="#9B9B9B"/>
  </g>
  <defs>
    <clipPath id="clip0_8054_4736">
      <rect width="21.54" height="17.57" fill="white"/>
    </clipPath>
  </defs>
</svg>