<svg xmlns="http://www.w3.org/2000/svg" width="24" height="25" viewBox="0 0 24 25" fill="none">
<g clip-path="url(#clip0_7407_11787)">
<path d="M16.725 6.75312C18.4517 6.75312 19.8515 5.35332 19.8515 3.62656C19.8515 1.89981 18.4517 0.5 16.725 0.5C14.9982 0.5 13.5984 1.89981 13.5984 3.62656C13.5984 5.35332 14.9982 6.75312 16.725 6.75312Z" fill="#BABABA"/>
<path d="M22.7765 16.5971L20.9952 9.60801C20.6765 8.36113 19.5562 7.48926 18.2718 7.48926H15.1781C13.8937 7.48926 12.7687 8.36113 12.4546 9.60801L10.6734 16.5971C10.4109 17.633 11.1937 18.6408 12.2624 18.6408H13.5937V23.0939C13.5937 23.8721 14.2218 24.5002 14.9999 24.5002H18.4452C19.2234 24.5002 19.8515 23.8721 19.8515 23.0939V18.6408H21.1874C22.2562 18.6408 23.039 17.633 22.7765 16.5971Z" fill="#BABABA"/>
<path d="M6.96094 7.49414H3.98438C2.43281 7.49414 1.17188 8.75508 1.17188 10.3066V15.3598C1.17188 16.0582 1.67813 16.6348 2.34375 16.7473V23.0941C2.34375 23.8723 2.97187 24.5004 3.75 24.5004H7.19531C7.97344 24.5004 8.60156 23.8723 8.60156 23.0941V16.7473C9.26719 16.6348 9.77344 16.0582 9.77344 15.3598V10.3066C9.77344 8.75039 8.51719 7.49414 6.96094 7.49414Z" fill="#BABABA"/>
<path d="M5.47495 6.75312C7.2017 6.75312 8.60151 5.35332 8.60151 3.62656C8.60151 1.89981 7.2017 0.5 5.47495 0.5C3.7482 0.5 2.34839 1.89981 2.34839 3.62656C2.34839 5.35332 3.7482 6.75312 5.47495 6.75312Z" fill="#BABABA"/>
</g>
<defs>
<clipPath id="clip0_7407_11787">
<rect width="24" height="24" fill="white" transform="translate(0 0.5)"/>
</clipPath>
</defs>
</svg>