<svg xmlns="http://www.w3.org/2000/svg" width="49" height="80" viewBox="0 0 49 80" fill="none">
  <path d="M43.7586 1.12744C55.3313 37.3555 -11.9946 48.8887 7.18106 12.8188" stroke="#09225A" stroke-width="7" stroke-miterlimit="22.93"/>
  <path fill-rule="evenodd" clip-rule="evenodd" d="M23.0631 24.9595C24.4473 24.9582 25.8001 24.5466 26.9503 23.7766C28.1006 23.0067 28.9968 21.9129 29.5257 20.6338C30.0545 19.3546 30.1922 17.9473 29.9213 16.5899C29.6505 15.2324 28.9833 13.9858 28.0041 13.0074C27.0249 12.0291 25.7776 11.3631 24.4199 11.0935C23.0622 10.8239 21.6551 10.9629 20.3764 11.4929C19.0977 12.0229 18.0048 12.9201 17.2359 14.0712C16.467 15.2222 16.0566 16.5753 16.0566 17.9595C16.0601 19.8161 16.7996 21.5955 18.113 22.9077C19.4264 24.2199 21.2065 24.9578 23.0631 24.9595Z" fill="#09225A"/>
  <path d="M23.5015 64.2859C-21.721 57.4478 51.6518 13.3859 38.668 79.2546" stroke="#09225A" stroke-width="7" stroke-miterlimit="22.93"/>
</svg>