<svg width="162" height="35" viewBox="0 0 162 35" fill="none" xmlns="http://www.w3.org/2000/svg">
<path d="M0.392 1.8H16.814V6.814H5.682V15.462H14.974V20.476H5.682V34H0.392V1.8ZM30.3441 34.598C28.1054 34.598 26.1274 34.1227 24.4101 33.172C22.6928 32.2213 21.3588 30.8873 20.4081 29.17C19.4574 27.422 18.9821 25.4287 18.9821 23.19V8.884H24.0421V23.19C24.0421 25.0913 24.6248 26.64 25.7901 27.836C26.9861 29.032 28.5194 29.63 30.3901 29.63C32.1688 29.63 33.6254 29.032 34.7601 27.836C35.8948 26.64 36.4621 25.0913 36.4621 23.19V8.884H41.5221V23.19C41.5221 25.4287 41.0468 27.422 40.0961 29.17C39.1454 30.8873 37.8268 32.2213 36.1401 33.172C34.4534 34.1227 32.5214 34.598 30.3441 34.598ZM63.2837 19.096C63.2837 17.3173 62.747 15.876 61.6737 14.772C60.6004 13.668 59.205 13.116 57.4877 13.116C55.6477 13.116 54.145 13.6987 52.9797 14.864C51.8144 15.9987 51.2317 17.486 51.2317 19.326V34H46.1717V8.884H51.2317V11.828C52.0597 10.724 53.1024 9.86533 54.3597 9.252C55.617 8.63867 56.9817 8.332 58.4537 8.332C60.3857 8.332 62.103 8.792 63.6057 9.712C65.1084 10.6013 66.2737 11.8587 67.1017 13.484C67.9297 15.1093 68.3437 16.98 68.3437 19.096V34H63.2837V19.096ZM72.9901 8.884H78.0501V34H72.9901V8.884ZM72.9441 0.649999H78.0961V5.756H72.9441V0.649999ZM94.7355 34.598C92.3128 34.598 90.0895 34.0153 88.0655 32.85C86.0415 31.6847 84.4468 30.1053 83.2815 28.112C82.1162 26.088 81.5335 23.8647 81.5335 21.442C81.5335 19.0193 82.1162 16.8113 83.2815 14.818C84.4468 12.794 86.0415 11.1993 88.0655 10.034C90.0895 8.86867 92.3128 8.286 94.7355 8.286C96.2075 8.286 97.5415 8.48533 98.7375 8.884V14.22C97.5722 13.484 96.2382 13.116 94.7355 13.116C93.2328 13.116 91.8528 13.484 90.5955 14.22C89.3688 14.956 88.3875 15.9527 87.6515 17.21C86.9462 18.4673 86.5935 19.878 86.5935 21.442C86.5935 23.006 86.9462 24.4167 87.6515 25.674C88.3875 26.9313 89.3688 27.928 90.5955 28.664C91.8528 29.4 93.2328 29.768 94.7355 29.768C96.1768 29.768 97.5108 29.4 98.7375 28.664V34C97.5415 34.3987 96.2075 34.598 94.7355 34.598ZM107.923 22.546V34H102.863V0.0519984H107.923V20.338L116.617 8.884H122.873L113.167 21.442L122.873 34H116.617L107.923 22.546ZM135.435 34.598C133.012 34.598 130.789 34.0153 128.765 32.85C126.741 31.6847 125.146 30.1053 123.981 28.112C122.815 26.088 122.233 23.8647 122.233 21.442C122.233 19.0193 122.815 16.8113 123.981 14.818C125.146 12.794 126.741 11.1993 128.765 10.034C130.789 8.86867 133.012 8.286 135.435 8.286C137.765 8.286 139.897 8.86867 141.829 10.034C143.761 11.1993 145.279 12.794 146.383 14.818C147.517 16.8113 148.085 19.0193 148.085 21.442C148.085 22.2087 147.993 22.9907 147.809 23.788H127.661C128.121 25.5667 129.056 27.008 130.467 28.112C131.908 29.216 133.564 29.768 135.435 29.768C136.753 29.768 137.98 29.4307 139.115 28.756C140.28 28.0813 141.108 27.192 141.599 26.088H147.303C146.597 28.6333 145.156 30.688 142.979 32.252C140.801 33.816 138.287 34.598 135.435 34.598ZM142.703 19.188C142.273 17.3787 141.384 15.922 140.035 14.818C138.716 13.6833 137.183 13.116 135.435 13.116C133.533 13.116 131.862 13.6833 130.421 14.818C129.01 15.922 128.075 17.3787 127.615 19.188H142.703ZM159.651 34.46C156.861 34.46 154.745 33.678 153.303 32.114C151.893 30.5193 151.187 28.3573 151.187 25.628V2.582H156.247V8.884H161.399V13.806H156.247V25.168C156.247 27.9893 157.535 29.4 160.111 29.4H161.399V34.46H159.651Z" fill="#09225A"/>
</svg>
